<?xml version="1.0" encoding="UTF-8" standalone="no"?>
<!DOCTYPE svg PUBLIC "-//W3C//DTD SVG 1.1//EN" "http://www.w3.org/Graphics/SVG/1.1/DTD/svg11.dtd">
<svg width="800px" height="300px" version="1.1" xmlns="http://www.w3.org/2000/svg" xmlns:xlink="http://www.w3.org/1999/xlink" xml:space="preserve" xmlns:serif="http://www.serif.com/" style="fill-rule:evenodd;clip-rule:evenodd;stroke-linejoin:round;stroke-miterlimit:2;">
    <g transform="matrix(0.830268,0,0,0.244604,23.738245,61.438856)">
        <rect x="0" y="8.257" width="513.491" height="127.523" style="fill:rgb(232,247,236);"/>
    </g>
    <g transform="matrix(0.067365,0,0,0.244604,23.738245,172.490232)">
        <rect x="0" y="8.257" width="513.491" height="127.523" style="fill:rgb(232,247,236);"/>
    </g>
    <g transform="matrix(0.830268,0,0,0.244604,23.738245,102.980331)">
        <rect x="0" y="8.257" width="513.491" height="127.523" style="fill:rgb(230,240,255);"/>
    </g>
    <g transform="matrix(0.067365,0,0,0.244604,23.738245,132.384001)">
        <rect x="0" y="8.257" width="513.491" height="127.523" style="fill:rgb(230,240,255);"/>
    </g>
    <g transform="matrix(1,0,0,1,-3.440367,23.469956)">
        <g transform="matrix(30,0,0,30,770.711251,66.972477)">
        </g>
        <text x="500.711px" y="66.972px" style="font-family:'HaranoAjiGothic-Regular', 'Harano Aji Gothic', sans-serif;font-size:30px;">破線を描画する処理</text>
    </g>
    <g transform="matrix(1,0,0,1,-38.256881,-19.081859)">
        <g transform="matrix(30,0,0,30,805.527765,152.293578)">
        </g>
        <text x="535.528px" y="152.294px" style="font-family:'HaranoAjiGothic-Regular', 'Harano Aji Gothic', sans-serif;font-size:30px;">円弧を描画する処理</text>
    </g>
    <g transform="matrix(0.883767,0,0,0.583023,-100.481516,-0.046512)">
        <rect x="469.441" y="185.321" width="78.931" height="39.45" style="fill:rgb(168,200,255);"/>
    </g>
    <g transform="matrix(0.883767,0,0,0.583023,-100.481516,-42.84486)">
        <rect x="469.441" y="185.321" width="78.931" height="39.45" style="fill:rgb(143,230,207);"/>
    </g>
    <g transform="matrix(1,0,0,1,-89.626042,-41.950879)">
        <text x="103.464px" y="66.055px" style="font-family:'HaranoAjiGothic-Regular', 'Harano Aji Gothic', sans-serif;font-size:20.833px;">const animationStartMap = {</text>
        <text x="103.464px" y="96.222px" style="font-family:'HaranoAjiGothic-Regular', 'Harano Aji Gothic', sans-serif;font-size:20.833px;">start0: () =&gt; {</text>
        <text x="122.13px" y="126.388px" style="font-family:'HaranoAjiGothic-Regular', 'Harano Aji Gothic', sans-serif;font-size:20.833px;">repeatSeq(animationSeqID0, 6, 500, () =&gt; {</text>
        <text x="122.13px" y="168.055px" style="font-family:'HaranoAjiGothic-Regular', 'Harano Aji Gothic', sans-serif;font-size:20.833px;">repeatSeq(animationSeqID1, 6, 100, () =&gt; {</text>
        <text x="122.13px" y="198.222px" style="font-family:'HaranoAjiGothic-Regular', 'Harano Aji Gothic', sans-serif;font-size:20.833px;">});</text>
        <text x="122.13px" y="239.888px" style="font-family:'HaranoAjiGothic-Regular', 'Harano Aji Gothic', sans-serif;font-size:20.833px;">});</text>
        <text x="103.464px" y="270.055px" style="font-family:'HaranoAjiGothic-Regular', 'Harano Aji Gothic', sans-serif;font-size:20.833px;">},</text>
        <text x="103.464px" y="300.222px" style="font-family:'HaranoAjiGothic-Regular', 'Harano Aji Gothic', sans-serif;font-size:20.833px;">test: () =&gt; {}</text>
        <text x="103.464px" y="330.388px" style="font-family:'HaranoAjiGothic-Regular', 'Harano Aji Gothic', sans-serif;font-size:20.833px;">};</text>
    </g>
    <g transform="matrix(1,0,0,1,-154.39698,-61.80409)">
        <text x="535.528px" y="237.615px" style="font-family:'HaranoAjiGothic-Regular', 'Harano Aji Gothic', sans-serif;font-size:20.833px;">フレー<tspan x="597.403px " y="237.615px ">ム</tspan>間隔：6ms</text>
        <g transform="matrix(20.833333,0,0,20.833333,694.590265,267.781346)">
        </g>
        <text x="535.528px" y="267.781px" style="font-family:'HaranoAjiGothic-Regular', 'Harano Aji Gothic', sans-serif;font-size:20.833px;">フレー<tspan x="597.403px " y="267.781px ">ム</tspan>数：100</text>
    </g>
    <g transform="matrix(1,0,0,1,-154.39698,-220.947687)">
        <text x="535.528px" y="237.615px" style="font-family:'HaranoAjiGothic-Regular', 'Harano Aji Gothic', sans-serif;font-size:20.833px;">フレー<tspan x="597.403px " y="237.615px ">ム</tspan>間隔：6ms</text>
        <g transform="matrix(20.833333,0,0,20.833333,694.590265,267.781346)">
        </g>
        <text x="535.528px" y="267.781px" style="font-family:'HaranoAjiGothic-Regular', 'Harano Aji Gothic', sans-serif;font-size:20.833px;">フレー<tspan x="597.403px " y="267.781px ">ム</tspan>数：500</text>
    </g>
</svg>
